<mxfile host="app.diagrams.net" modified="2023-10-21T19:52:42.363Z" agent="Mozilla/5.0 (Windows NT 10.0; Win64; x64) AppleWebKit/537.36 (KHTML, like Gecko) Chrome/116.0.5845.888 YaBrowser/23.9.2.888 Yowser/2.5 Safari/537.36" etag="UxV4K2W_fCHmrcznGZuK" version="22.0.6" type="github">
  <diagram id="C5RBs43oDa-KdzZeNtuy" name="Page-1">
    <mxGraphModel dx="1514" dy="849" grid="1" gridSize="10" guides="1" tooltips="1" connect="1" arrows="1" fold="1" page="1" pageScale="1" pageWidth="827" pageHeight="1169" math="0" shadow="0">
      <root>
        <mxCell id="WIyWlLk6GJQsqaUBKTNV-0" />
        <mxCell id="WIyWlLk6GJQsqaUBKTNV-1" parent="WIyWlLk6GJQsqaUBKTNV-0" />
        <mxCell id="R54f4_QAWIgHOmy9ZhsC-9" value="" style="edgeStyle=orthogonalEdgeStyle;rounded=0;orthogonalLoop=1;jettySize=auto;html=1;" edge="1" parent="WIyWlLk6GJQsqaUBKTNV-1" source="R54f4_QAWIgHOmy9ZhsC-0" target="R54f4_QAWIgHOmy9ZhsC-4">
          <mxGeometry relative="1" as="geometry" />
        </mxCell>
        <mxCell id="R54f4_QAWIgHOmy9ZhsC-0" value="a,b,c,d" style="shape=parallelogram;perimeter=parallelogramPerimeter;whiteSpace=wrap;html=1;fixedSize=1;" vertex="1" parent="WIyWlLk6GJQsqaUBKTNV-1">
          <mxGeometry x="250" y="230" width="120" height="60" as="geometry" />
        </mxCell>
        <mxCell id="R54f4_QAWIgHOmy9ZhsC-7" value="" style="edgeStyle=orthogonalEdgeStyle;rounded=0;orthogonalLoop=1;jettySize=auto;html=1;" edge="1" parent="WIyWlLk6GJQsqaUBKTNV-1" source="R54f4_QAWIgHOmy9ZhsC-1" target="R54f4_QAWIgHOmy9ZhsC-3">
          <mxGeometry relative="1" as="geometry" />
        </mxCell>
        <mxCell id="R54f4_QAWIgHOmy9ZhsC-1" value="Start" style="ellipse;whiteSpace=wrap;html=1;" vertex="1" parent="WIyWlLk6GJQsqaUBKTNV-1">
          <mxGeometry x="250" y="30" width="120" height="80" as="geometry" />
        </mxCell>
        <mxCell id="R54f4_QAWIgHOmy9ZhsC-2" value="Finish" style="ellipse;whiteSpace=wrap;html=1;" vertex="1" parent="WIyWlLk6GJQsqaUBKTNV-1">
          <mxGeometry x="250" y="590" width="120" height="80" as="geometry" />
        </mxCell>
        <mxCell id="R54f4_QAWIgHOmy9ZhsC-8" value="" style="edgeStyle=orthogonalEdgeStyle;rounded=0;orthogonalLoop=1;jettySize=auto;html=1;" edge="1" parent="WIyWlLk6GJQsqaUBKTNV-1" source="R54f4_QAWIgHOmy9ZhsC-3" target="R54f4_QAWIgHOmy9ZhsC-0">
          <mxGeometry relative="1" as="geometry" />
        </mxCell>
        <mxCell id="R54f4_QAWIgHOmy9ZhsC-3" value="a,b,c,d,sum,sAverage" style="rounded=0;whiteSpace=wrap;html=1;" vertex="1" parent="WIyWlLk6GJQsqaUBKTNV-1">
          <mxGeometry x="250" y="140" width="120" height="60" as="geometry" />
        </mxCell>
        <mxCell id="R54f4_QAWIgHOmy9ZhsC-10" value="" style="edgeStyle=orthogonalEdgeStyle;rounded=0;orthogonalLoop=1;jettySize=auto;html=1;entryX=0.5;entryY=0;entryDx=0;entryDy=0;" edge="1" parent="WIyWlLk6GJQsqaUBKTNV-1" source="R54f4_QAWIgHOmy9ZhsC-4" target="R54f4_QAWIgHOmy9ZhsC-5">
          <mxGeometry relative="1" as="geometry" />
        </mxCell>
        <mxCell id="R54f4_QAWIgHOmy9ZhsC-4" value="sum = a+b+c+d" style="rounded=0;whiteSpace=wrap;html=1;" vertex="1" parent="WIyWlLk6GJQsqaUBKTNV-1">
          <mxGeometry x="250" y="320" width="120" height="60" as="geometry" />
        </mxCell>
        <mxCell id="R54f4_QAWIgHOmy9ZhsC-11" value="" style="edgeStyle=orthogonalEdgeStyle;rounded=0;orthogonalLoop=1;jettySize=auto;html=1;" edge="1" parent="WIyWlLk6GJQsqaUBKTNV-1" source="R54f4_QAWIgHOmy9ZhsC-5" target="R54f4_QAWIgHOmy9ZhsC-6">
          <mxGeometry relative="1" as="geometry" />
        </mxCell>
        <mxCell id="R54f4_QAWIgHOmy9ZhsC-5" value="sAverage = sum/4" style="rounded=0;whiteSpace=wrap;html=1;" vertex="1" parent="WIyWlLk6GJQsqaUBKTNV-1">
          <mxGeometry x="250" y="410" width="120" height="60" as="geometry" />
        </mxCell>
        <mxCell id="R54f4_QAWIgHOmy9ZhsC-12" value="" style="edgeStyle=orthogonalEdgeStyle;rounded=0;orthogonalLoop=1;jettySize=auto;html=1;" edge="1" parent="WIyWlLk6GJQsqaUBKTNV-1" source="R54f4_QAWIgHOmy9ZhsC-6" target="R54f4_QAWIgHOmy9ZhsC-2">
          <mxGeometry relative="1" as="geometry" />
        </mxCell>
        <mxCell id="R54f4_QAWIgHOmy9ZhsC-6" value="sAverage" style="shape=document;whiteSpace=wrap;html=1;boundedLbl=1;" vertex="1" parent="WIyWlLk6GJQsqaUBKTNV-1">
          <mxGeometry x="250" y="490" width="120" height="80" as="geometry" />
        </mxCell>
      </root>
    </mxGraphModel>
  </diagram>
</mxfile>
